# Blender 4.3.1
# www.blender.org
mtllib espada.mtl
o sword.001
v -0.098109 1.102543 0.027017
v -0.098109 2.857174 0.027017
v -0.098109 1.102543 -0.020476
v -0.098109 2.857174 -0.020476
v 0.086608 1.102543 0.027017
v 0.086608 2.857174 0.027017
v 0.086608 1.102543 -0.020476
v 0.086608 2.857174 -0.020476
v -0.005750 0.903387 -0.012852
v -0.005750 2.857174 -0.030725
v -0.005750 0.903387 0.019392
v -0.005750 2.857174 0.037266
v 0.254096 2.925846 0.021924
v 0.254096 2.925846 -0.020795
v -0.280918 2.925846 0.021924
v -0.280918 2.925846 -0.020795
v 0.254096 2.853704 0.021924
v 0.254096 2.853704 -0.020795
v -0.280918 2.853703 0.021924
v -0.280918 2.853703 -0.020795
v 0.127081 2.925846 0.047200
v -0.153903 2.925846 0.047200
v -0.153903 2.925846 -0.046071
v 0.127081 2.925846 -0.046071
v -0.153903 2.853703 0.047200
v 0.127081 2.853704 0.047200
v 0.127081 2.853704 -0.046071
v -0.153903 2.853703 -0.046071
v -0.007566 3.709379 0.042697
v -0.007566 3.709379 -0.044085
v -0.048788 3.698689 0.042697
v -0.048788 3.698689 -0.044085
v -0.083735 3.668244 0.042697
v -0.083735 3.668244 -0.044085
v -0.107086 3.622680 0.042697
v -0.107086 3.622680 -0.044085
v -0.115285 3.568934 0.042697
v -0.115285 3.568934 -0.044085
v 0.100153 3.568934 0.042697
v 0.100153 3.568934 -0.044085
v 0.091954 3.622680 0.042697
v 0.091954 3.622680 -0.044085
v 0.068603 3.668244 0.042697
v 0.068603 3.668244 -0.044085
v 0.033656 3.698689 0.042697
v 0.033656 3.698689 -0.044085
v 0.034432 3.577871 0.038446
v 0.034432 3.577871 -0.039197
v 0.034432 2.927987 0.038446
v 0.034432 2.927987 -0.039197
v -0.052771 3.577871 0.038446
v -0.052771 3.577871 -0.039197
v -0.052770 2.927987 0.038446
v -0.052770 2.927987 -0.039197
v 0.034432 3.082721 -0.039197
v 0.034432 3.113668 -0.039197
v 0.034432 3.144615 -0.039197
v 0.034432 3.175562 -0.039197
v 0.034432 3.206509 -0.039197
v 0.034432 3.237456 -0.039197
v 0.034432 3.268403 -0.039197
v 0.034432 3.299349 -0.039197
v 0.034432 3.330296 -0.039197
v 0.034432 3.361243 -0.039197
v 0.034432 3.392190 -0.039197
v 0.034432 3.423137 -0.039197
v 0.034432 3.454084 -0.039197
v 0.034432 3.485030 -0.039197
v 0.034432 3.515977 -0.039197
v 0.034432 3.546924 -0.039197
v 0.034432 3.546924 0.038446
v 0.034432 3.515977 0.038446
v 0.034432 3.485030 0.038446
v 0.034432 3.454084 0.038446
v 0.034432 3.423137 0.038446
v 0.034432 3.392190 0.038446
v 0.034432 3.361243 0.038446
v 0.034432 3.330296 0.038446
v 0.034432 3.299349 0.038446
v 0.034432 3.268403 0.038446
v 0.034432 3.237456 0.038446
v 0.034432 3.206509 0.038446
v 0.034432 3.175562 0.038446
v 0.034432 3.144615 0.038446
v 0.034432 3.113668 0.038446
v 0.034432 3.082721 0.038446
v 0.034432 3.051775 0.038446
v 0.034432 3.020828 0.038446
v 0.034432 2.989881 0.038446
v 0.034432 2.958934 0.038446
v -0.052771 3.299349 -0.039197
v -0.052771 3.268402 -0.039197
v -0.052771 3.237456 -0.039197
v -0.052771 3.206509 -0.039197
v -0.052771 3.175562 -0.039197
v -0.052771 3.144615 -0.039197
v -0.052771 3.113668 -0.039197
v -0.052770 3.082721 -0.039197
v -0.052770 3.051775 -0.039197
v -0.052770 3.020828 -0.039197
v -0.052770 2.989881 -0.039197
v -0.052770 2.958934 -0.039197
v -0.052770 2.958934 0.038446
v -0.052770 2.989881 0.038446
v -0.052770 3.020828 0.038446
v -0.052770 3.051775 0.038446
v -0.052770 3.082721 0.038446
v -0.052771 3.113668 0.038446
v -0.052771 3.144615 0.038446
v -0.052771 3.175562 0.038446
v -0.052771 3.206509 0.038446
v -0.052771 3.237456 0.038446
v -0.052771 3.268402 0.038446
v -0.052771 3.299349 0.038446
v -0.052771 3.330296 0.038446
v -0.052771 3.361243 0.038446
v -0.052771 3.392190 0.038446
v -0.052771 3.423137 0.038446
v -0.052771 3.454084 0.038446
v -0.052771 3.485030 0.038446
v -0.052771 3.515977 0.038446
v -0.052771 3.546924 0.038446
v 0.034432 2.958934 -0.039197
v 0.034432 2.989881 -0.039197
v 0.034432 3.020828 -0.039197
v 0.034432 3.051775 -0.039197
v -0.052771 3.330296 -0.039197
v -0.052771 3.361243 -0.039197
v -0.052771 3.392190 -0.039197
v -0.052771 3.423137 -0.039197
v -0.052771 3.454084 -0.039197
v -0.052771 3.485030 -0.039197
v -0.052771 3.515977 -0.039197
v -0.052771 3.546924 -0.039197
v 0.046584 3.361243 -0.050017
v 0.046584 3.330296 -0.050017
v 0.046585 3.206509 0.049266
v 0.046585 3.237456 0.049266
v 0.046585 3.113668 -0.050017
v 0.046585 3.082721 -0.050017
v 0.046585 3.175562 -0.050017
v 0.046585 3.144615 -0.050017
v 0.046585 3.237456 -0.050017
v 0.046585 3.206509 -0.050017
v 0.046584 3.299349 -0.050017
v 0.046584 3.268403 -0.050017
v 0.046584 3.423137 -0.050017
v 0.046584 3.392190 -0.050017
v 0.046584 3.485030 -0.050017
v 0.046584 3.454084 -0.050017
v 0.046584 3.546924 -0.050017
v 0.046584 3.515977 -0.050017
v 0.046584 3.515977 0.049266
v 0.046584 3.546924 0.049266
v 0.046584 3.454084 0.049266
v 0.046584 3.485030 0.049266
v 0.046584 3.392190 0.049266
v 0.046584 3.423137 0.049266
v 0.046584 3.330296 0.049266
v 0.046584 3.361243 0.049266
v 0.046584 3.268403 0.049266
v 0.046584 3.299349 0.049266
v 0.046585 3.144615 0.049266
v 0.046585 3.175562 0.049266
v 0.046585 3.082721 0.049266
v 0.046585 3.113668 0.049266
v 0.046585 3.020828 0.049266
v 0.046585 3.051775 0.049266
v 0.046585 2.958934 0.049266
v 0.046585 2.989881 0.049266
v -0.064923 3.268402 -0.050017
v -0.064923 3.299349 -0.050017
v -0.064923 3.206509 -0.050017
v -0.064923 3.237456 -0.050017
v -0.064923 3.144615 -0.050017
v -0.064923 3.175562 -0.050017
v -0.064923 3.082721 -0.050017
v -0.064923 3.113668 -0.050017
v -0.064923 3.020828 -0.050017
v -0.064923 3.051775 -0.050017
v -0.064923 2.958934 -0.050017
v -0.064923 2.989881 -0.050017
v -0.064923 2.989881 0.049266
v -0.064923 2.958934 0.049266
v -0.064923 3.051775 0.049266
v -0.064923 3.020828 0.049266
v -0.064923 3.113668 0.049266
v -0.064923 3.082721 0.049266
v -0.064923 3.175562 0.049266
v -0.064923 3.144615 0.049266
v -0.064923 3.237456 0.049266
v -0.064923 3.206509 0.049266
v -0.064923 3.299349 0.049266
v -0.064923 3.268402 0.049266
v -0.064923 3.361243 0.049266
v -0.064923 3.330296 0.049266
v -0.064923 3.423137 0.049266
v -0.064923 3.392190 0.049266
v -0.064923 3.485030 0.049266
v -0.064923 3.454084 0.049266
v -0.064923 3.546924 0.049266
v -0.064923 3.515977 0.049266
v 0.046585 2.989881 -0.050017
v 0.046585 2.958934 -0.050017
v 0.046585 3.051775 -0.050017
v 0.046585 3.020828 -0.050017
v -0.064923 3.515977 -0.050017
v -0.064923 3.546924 -0.050017
v -0.064923 3.454084 -0.050017
v -0.064923 3.485030 -0.050017
v -0.064923 3.392190 -0.050017
v -0.064923 3.423137 -0.050017
v -0.064923 3.330296 -0.050017
v -0.064923 3.361243 -0.050017
vn -1.0000 -0.0000 -0.0000
vn 0.0194 -0.0048 -0.9998
vn 1.0000 -0.0000 -0.0000
vn -0.0194 -0.0048 0.9998
vn 0.9072 -0.4207 -0.0000
vn -0.0000 1.0000 -0.0000
vn -0.9072 -0.4207 -0.0000
vn 0.0194 -0.0048 0.9998
vn -0.0194 -0.0048 -0.9998
vn -0.0000 -1.0000 -0.0000
vn 0.0618 -0.0000 0.9981
vn 0.0618 -0.0000 -0.9981
vn -0.0618 -0.0000 -0.9981
vn -0.0000 -0.0000 1.0000
vn -0.0618 -0.0000 0.9981
vn -0.0000 -0.0000 -1.0000
vn -0.4917 0.8708 -0.0000
vn -0.8151 0.5794 -0.0000
vn -0.9709 0.2395 -0.0000
vn -0.9886 0.1508 -0.0000
vn 0.9886 0.1508 -0.0000
vn 0.9709 0.2395 -0.0000
vn 0.8151 0.5794 -0.0000
vn 0.4917 0.8708 -0.0000
vt 0.375000 0.000000
vt 0.625000 0.000000
vt 0.625000 0.250000
vt 0.375000 0.250000
vt 0.375000 0.375000
vt 0.625000 0.375000
vt 0.625000 0.500000
vt 0.375000 0.500000
vt 0.625000 0.750000
vt 0.375000 0.750000
vt 0.375000 0.875000
vt 0.625000 0.875000
vt 0.625000 1.000000
vt 0.375000 1.000000
vt 0.250000 0.500000
vt 0.250000 0.750000
vt 0.750000 0.500000
vt 0.875000 0.500000
vt 0.875000 0.750000
vt 0.750000 0.750000
vt 0.125000 0.500000
vt 0.125000 0.750000
vt 0.375000 0.059351
vt 0.625000 0.059351
vt 0.375000 0.559351
vt 0.625000 0.559351
vt 0.125000 0.559351
vt 0.875000 0.559351
vt 0.875000 0.690649
vt 0.625000 0.690649
vt 0.375000 0.690649
vt 0.125000 0.690649
vt 0.625000 0.190649
vt 0.375000 0.190649
vt 1.000000 0.500000
vt 1.000000 1.000000
vt 0.937500 1.000000
vt 0.937500 0.500000
vt 0.875000 1.000000
vt 0.812500 1.000000
vt 0.812500 0.500000
vt 0.750000 1.000000
vt 0.250000 1.000000
vt 0.187500 1.000000
vt 0.187500 0.500000
vt 0.125000 1.000000
vt 0.341844 0.471731
vt 0.250000 0.490000
vt 0.158156 0.471731
vt 0.080294 0.419706
vt 0.028269 0.341844
vt 0.010000 0.250000
vt 0.490000 0.250000
vt 0.471731 0.341844
vt 0.419706 0.419706
vt 0.062500 1.000000
vt 0.062500 0.500000
vt 0.000000 1.000000
vt 0.000000 0.500000
vt 0.750000 0.490000
vt 0.841844 0.471731
vt 0.919706 0.419706
vt 0.971731 0.341844
vt 0.990000 0.250000
vt 0.510000 0.250000
vt 0.528269 0.341844
vt 0.580294 0.419706
vt 0.658156 0.471731
vt 0.625000 0.011905
vt 0.375000 0.011905
vt 0.625000 0.095238
vt 0.625000 0.107143
vt 0.375000 0.107143
vt 0.375000 0.095238
vt 0.375000 0.035714
vt 0.625000 0.035714
vt 0.625000 0.571429
vt 0.625000 0.583333
vt 0.375000 0.583333
vt 0.375000 0.571429
vt 0.625000 0.666667
vt 0.625000 0.678571
vt 0.375000 0.678572
vt 0.375000 0.666667
vt 0.625000 0.690476
vt 0.625000 0.702381
vt 0.375000 0.702381
vt 0.375000 0.690476
vt 0.375000 0.547619
vt 0.125000 0.547619
vt 0.625000 0.642857
vt 0.625000 0.654762
vt 0.375000 0.654762
vt 0.375000 0.642857
vt 0.875000 0.619048
vt 0.625000 0.619048
vt 0.625000 0.630952
vt 0.375000 0.630953
vt 0.375000 0.619048
vt 0.625000 0.047619
vt 0.375000 0.047619
vt 0.625000 0.595238
vt 0.625000 0.607143
vt 0.375000 0.607143
vt 0.375000 0.595238
vt 0.875000 0.738095
vt 0.625000 0.738095
vt 0.125000 0.535714
vt 0.375000 0.535714
vt 0.875000 0.607143
vt 0.625000 0.547619
vt 0.625000 0.559524
vt 0.375000 0.559524
vt 0.375000 0.059524
vt 0.625000 0.059524
vt 0.625000 0.523810
vt 0.625000 0.535714
vt 0.375000 0.523810
vt 0.125000 0.523810
vt 0.625000 0.511905
vt 0.375000 0.511905
vt 0.875000 0.595238
vt 0.375000 0.738095
vt 0.125000 0.738095
vt 0.625000 0.190476
vt 0.625000 0.202381
vt 0.375000 0.202381
vt 0.375000 0.190476
vt 0.625000 0.214286
vt 0.625000 0.226190
vt 0.375000 0.226190
vt 0.375000 0.214286
vt 0.625000 0.071429
vt 0.375000 0.071429
vt 0.625000 0.166667
vt 0.625000 0.178571
vt 0.375000 0.178571
vt 0.375000 0.166667
vt 0.125000 0.511905
vt 0.625000 0.142857
vt 0.625000 0.154762
vt 0.375000 0.154762
vt 0.375000 0.142857
vt 0.875000 0.583333
vt 0.625000 0.119048
vt 0.625000 0.130952
vt 0.375000 0.130952
vt 0.375000 0.119048
vt 0.375000 0.083333
vt 0.625000 0.083333
vt 0.875000 0.571429
vt 0.625000 0.023810
vt 0.375000 0.023810
vt 0.375000 0.726191
vt 0.625000 0.726190
vt 0.625000 0.238095
vt 0.375000 0.238095
vt 0.875000 0.559524
vt 0.625000 0.714286
vt 0.375000 0.714286
vt 0.875000 0.547619
vt 0.125000 0.559524
vt 0.125000 0.583333
vt 0.125000 0.571429
vt 0.875000 0.535714
vt 0.125000 0.607143
vt 0.125000 0.595238
vt 0.125000 0.630952
vt 0.125000 0.619048
vt 0.125000 0.654762
vt 0.125000 0.642857
vt 0.875000 0.523810
vt 0.125000 0.678571
vt 0.125000 0.666667
vt 0.125000 0.702381
vt 0.125000 0.690476
vt 0.125000 0.726190
vt 0.125000 0.714286
vt 0.875000 0.511905
vt 0.875000 0.630953
vt 0.875000 0.642857
vt 0.875000 0.654762
vt 0.875000 0.666667
vt 0.875000 0.678572
vt 0.875000 0.690476
vt 0.875000 0.702381
vt 0.875000 0.714286
vt 0.875000 0.726191
s 0
usemtl Dirty_metal
f 1/1/1 2/2/1 4/3/1 3/4/1
f 9/5/2 10/6/2 8/7/2 7/8/2
f 7/8/3 8/7/3 6/9/3 5/10/3
f 11/11/4 12/12/4 2/13/4 1/14/4
f 9/15/5 7/8/5 5/10/5 11/16/5
f 10/17/6 4/18/6 2/19/6 12/20/6
f 8/7/6 10/17/6 12/20/6 6/9/6
f 3/21/7 9/15/7 11/16/7 1/22/7
f 5/10/8 6/9/8 12/12/8 11/11/8
f 3/4/9 4/3/9 10/6/9 9/5/9
usemtl Material.003
f 21/23/6 24/24/6 16/3/6 15/4/6
f 15/4/1 16/3/1 20/7/1 19/8/1
f 25/25/10 28/26/10 18/9/10 17/10/10
f 17/10/3 18/9/3 14/13/3 13/14/3
f 22/27/11 25/25/11 17/10/11 13/22/11
f 28/26/12 23/28/12 14/19/12 18/9/12
f 20/7/13 16/18/13 24/29/13 27/30/13
f 27/30/14 24/29/14 23/28/14 28/26/14
f 15/21/15 19/8/15 26/31/15 21/32/15
f 21/32/16 26/31/16 25/25/16 22/27/16
f 19/8/10 20/7/10 27/30/10 26/31/10
f 26/31/6 27/30/6 28/26/6 25/25/6
f 13/1/6 14/2/6 23/33/6 22/34/6
f 22/34/10 23/33/10 24/24/10 21/23/10
f 23/33/3 22/34/3 25/25/3 28/26/3
f 21/23/1 24/24/1 27/30/1 26/31/1
s 1
f 29/35/6 30/36/6 32/37/17 31/38/17
f 31/38/17 32/37/17 34/39/18 33/18/18
f 33/18/18 34/39/18 36/40/19 35/41/19
f 35/41/19 36/40/19 38/42/20 37/17/20
f 39/15/21 40/43/21 42/44/22 41/45/22
f 41/45/22 42/44/22 44/46/23 43/21/23
f 32/47/16 30/48/16 46/49/16 44/50/16 42/51/16 40/52/16 38/53/16 36/54/16 34/55/16
f 43/21/23 44/46/23 46/56/24 45/57/24
f 45/57/24 46/56/24 30/58/6 29/59/6
f 29/60/14 31/61/14 33/62/14 35/63/14 37/64/14 39/65/14 41/66/14 43/67/14 45/68/14
f 37/64/10 38/53/10 40/43/10 39/65/10
s 0
usemtl Material.002
f 48/2/1 70/69/1 71/70/1 47/1/1
f 49/4/6 50/3/6 54/7/6 53/8/6
f 63/71/1 62/72/1 79/73/1 78/74/1
f 51/10/10 52/9/10 48/13/10 47/14/10
f 73/75/10 68/76/10 149/76/10 156/75/10
f 97/77/3 96/78/3 109/79/3 108/80/3
f 128/81/3 129/82/3 117/83/3 116/84/3
f 130/85/3 131/86/3 119/87/3 118/88/3
f 106/89/10 87/90/10 168/90/10 185/89/10
f 91/91/3 127/92/3 115/93/3 114/94/3
f 60/95/10 93/96/10 174/96/10 143/95/10
f 93/96/3 92/97/3 113/98/3 112/99/3
f 67/100/6 74/101/6 155/101/6 150/100/6
f 95/102/3 94/103/3 111/104/3 110/105/3
f 70/106/14 48/19/14 52/9/14 134/107/14
f 88/108/6 105/109/6 186/109/6 167/108/6
f 94/103/6 59/110/6 144/110/6 173/103/6
f 99/111/3 98/112/3 107/113/3 106/89/3
f 75/114/10 66/115/10 147/115/10 158/114/10
f 101/116/3 100/117/3 105/109/3 104/118/3
f 104/118/10 89/119/10 170/119/10 183/118/10
f 54/7/3 102/120/3 103/121/3 53/8/3
f 58/122/10 95/102/10 176/102/10 141/122/10
f 122/123/16 51/10/16 47/22/16 71/124/16
f 55/125/1 126/126/1 87/127/1 86/128/1
f 125/129/1 124/130/1 89/131/1 88/132/1
f 65/133/6 76/134/6 157/134/6 148/133/6
f 57/135/1 56/136/1 85/137/1 84/138/1
f 90/139/6 103/121/6 184/121/6 169/139/6
f 59/140/1 58/141/1 83/142/1 82/143/1
f 96/78/6 57/144/6 142/144/6 175/78/6
f 61/145/1 60/146/1 81/147/1 80/148/1
f 134/107/3 52/9/3 51/10/3 122/123/3
f 77/149/10 64/150/10 135/150/10 160/149/10
f 134/107/10 122/123/10 201/123/10 208/107/10
f 65/133/1 64/150/1 77/149/1 76/134/1
f 56/151/10 97/77/10 178/77/10 139/151/10
f 67/100/1 66/115/1 75/114/1 74/101/1
f 63/71/6 78/74/6 159/74/6 136/71/6
f 69/152/1 68/76/1 73/75/1 72/153/1
f 121/154/6 133/155/6 207/155/6 202/154/6
f 123/156/1 50/3/1 49/4/1 90/157/1
f 98/112/6 55/158/6 140/158/6 177/112/6
f 79/73/10 62/72/10 145/72/10 162/73/10
f 132/159/3 133/155/3 121/154/3 120/160/3
f 132/159/10 120/160/10 199/160/10 210/159/10
f 53/8/16 103/121/16 90/139/16 49/21/16
f 126/161/10 99/111/10 180/111/10 205/161/10
f 104/118/16 105/109/16 88/108/16 89/119/16
f 61/145/6 80/148/6 161/148/6 146/145/6
f 106/89/16 107/113/16 86/162/16 87/90/16
f 119/87/6 131/86/6 209/86/6 200/87/6
f 108/80/16 109/79/16 84/163/16 85/164/16
f 100/117/6 125/165/6 206/165/6 179/117/6
f 110/105/16 111/104/16 82/166/16 83/167/16
f 81/147/10 60/146/10 143/146/10 138/147/10
f 112/99/16 113/98/16 80/168/16 81/169/16
f 130/85/10 118/88/10 197/88/10 212/85/10
f 114/94/16 115/93/16 78/170/16 79/171/16
f 124/172/10 101/116/10 182/116/10 203/172/10
f 116/84/16 117/83/16 76/173/16 77/174/16
f 59/140/6 82/143/6 137/143/6 144/140/6
f 118/88/16 119/87/16 74/175/16 75/176/16
f 117/83/6 129/82/6 211/82/6 198/83/6
f 120/160/16 121/154/16 72/177/16 73/178/16
f 102/120/6 123/179/6 204/179/6 181/120/6
f 50/18/14 123/179/14 102/120/14 54/7/14
f 83/142/10 58/141/10 141/141/10 164/142/10
f 124/172/14 125/165/14 100/117/14 101/116/14
f 128/81/10 116/84/10 195/84/10 214/81/10
f 126/161/14 55/158/14 98/112/14 99/111/14
f 122/123/10 71/124/10 154/124/10 201/123/10
f 56/151/14 57/144/14 96/78/14 97/77/14
f 57/135/6 84/138/6 163/138/6 142/135/6
f 58/122/14 59/110/14 94/103/14 95/102/14
f 115/93/6 127/92/6 213/92/6 196/93/6
f 60/95/14 61/180/14 92/97/14 93/96/14
f 72/177/6 121/154/6 202/154/6 153/177/6
f 62/181/14 63/182/14 127/92/14 91/91/14
f 85/137/10 56/136/10 139/136/10 166/137/10
f 64/183/14 65/184/14 129/82/14 128/81/14
f 91/91/10 114/94/10 193/94/10 172/91/10
f 66/185/14 67/186/14 131/86/14 130/85/14
f 120/160/10 73/178/10 156/178/10 199/160/10
f 68/187/14 69/188/14 133/155/14 132/159/14
f 55/125/6 86/128/6 165/128/6 140/125/6
f 205/126/1 206/129/1 167/132/1 168/127/1
f 213/92/3 214/81/3 195/84/3 196/93/3
f 171/97/3 172/91/3 193/94/3 194/98/3
f 173/103/3 174/96/3 191/99/3 192/104/3
f 177/112/3 178/77/3 187/80/3 188/113/3
f 175/78/3 176/102/3 189/105/3 190/79/3
f 179/117/3 180/111/3 185/89/3 186/109/3
f 181/120/3 182/116/3 183/118/3 184/121/3
f 203/130/1 204/156/1 169/157/1 170/131/1
f 139/136/1 140/125/1 165/128/1 166/137/1
f 141/141/1 142/135/1 163/138/1 164/142/1
f 143/146/1 144/140/1 137/143/1 138/147/1
f 135/150/1 136/71/1 159/74/1 160/149/1
f 145/72/1 146/145/1 161/148/1 162/73/1
f 147/115/1 148/133/1 157/134/1 158/114/1
f 149/76/1 150/100/1 155/101/1 156/75/1
f 151/69/1 152/152/1 153/153/1 154/70/1
f 211/82/3 212/85/3 197/88/3 198/83/3
f 209/86/3 210/159/3 199/160/3 200/87/3
f 207/155/3 208/107/3 201/123/3 202/154/3
f 184/121/16 183/118/16 170/119/16 169/139/16
f 186/109/16 185/89/16 168/90/16 167/108/16
f 188/113/16 187/80/16 166/164/16 165/162/16
f 190/79/16 189/105/16 164/167/16 163/163/16
f 192/104/16 191/99/16 138/169/16 137/166/16
f 194/98/16 193/94/16 162/171/16 161/168/16
f 196/93/16 195/84/16 160/174/16 159/170/16
f 198/83/16 197/88/16 158/176/16 157/173/16
f 200/87/16 199/160/16 156/178/16 155/175/16
f 202/154/16 201/123/16 154/124/16 153/177/16
f 204/179/14 203/172/14 182/116/14 181/120/14
f 206/165/14 205/161/14 180/111/14 179/117/14
f 140/158/14 139/151/14 178/77/14 177/112/14
f 142/144/14 141/122/14 176/102/14 175/78/14
f 144/110/14 143/95/14 174/96/14 173/103/14
f 146/180/14 145/181/14 172/91/14 171/97/14
f 136/182/14 135/183/14 214/81/14 213/92/14
f 148/184/14 147/185/14 212/85/14 211/82/14
f 150/186/14 149/187/14 210/159/14 209/86/14
f 152/188/14 151/106/14 208/107/14 207/155/14
f 92/97/6 61/180/6 146/180/6 171/97/6
f 86/162/6 107/113/6 188/113/6 165/162/6
f 69/152/6 72/153/6 153/153/6 152/152/6
f 95/102/10 110/105/10 189/105/10 176/102/10
f 62/181/10 91/91/10 172/91/10 145/181/10
f 108/80/10 85/164/10 166/164/10 187/80/10
f 71/70/10 70/69/10 151/69/10 154/70/10
f 109/79/6 96/78/6 175/78/6 190/79/6
f 127/92/6 63/182/6 136/182/6 213/92/6
f 84/163/6 109/79/6 190/79/6 163/163/6
f 97/77/10 108/80/10 187/80/10 178/77/10
f 64/183/10 128/81/10 214/81/10 135/183/10
f 110/105/10 83/167/10 164/167/10 189/105/10
f 107/113/6 98/112/6 177/112/6 188/113/6
f 129/82/6 65/184/6 148/184/6 211/82/6
f 82/166/6 111/104/6 192/104/6 137/166/6
f 99/111/10 106/89/10 185/89/10 180/111/10
f 66/185/10 130/85/10 212/85/10 147/185/10
f 112/99/10 81/169/10 138/169/10 191/99/10
f 105/109/6 100/117/6 179/117/6 186/109/6
f 131/86/6 67/186/6 150/186/6 209/86/6
f 80/168/6 113/98/6 194/98/6 161/168/6
f 101/116/10 104/118/10 183/118/10 182/116/10
f 68/187/10 132/159/10 210/159/10 149/187/10
f 114/94/10 79/171/10 162/171/10 193/94/10
f 103/121/6 102/120/6 181/120/6 184/121/6
f 133/155/6 69/188/6 152/188/6 207/155/6
f 78/170/6 115/93/6 196/93/6 159/170/6
f 123/156/6 90/157/6 169/157/6 204/156/6
f 70/106/10 134/107/10 208/107/10 151/106/10
f 116/84/10 77/174/10 160/174/10 195/84/10
f 89/131/10 124/130/10 203/130/10 170/131/10
f 76/173/6 117/83/6 198/83/6 157/173/6
f 111/104/6 94/103/6 173/103/6 192/104/6
f 125/129/6 88/132/6 167/132/6 206/129/6
f 118/88/10 75/176/10 158/176/10 197/88/10
f 93/96/10 112/99/10 191/99/10 174/96/10
f 87/127/10 126/126/10 205/126/10 168/127/10
f 74/175/6 119/87/6 200/87/6 155/175/6
f 113/98/6 92/97/6 171/97/6 194/98/6
